<svg width="19" height="20" viewBox="0 0 19 20" fill="none" xmlns="http://www.w3.org/2000/svg">
<g clip-path="url(#clip0)">
<path d="M16.0343 0.766602H2.94608C1.74306 0.766602 0.764709 1.80859 0.764709 3.08988V17.0295C0.764709 18.3108 1.74306 19.3528 2.94608 19.3528H9.4902V12.9638H7.30883V10.0597H9.4902V7.73643C9.4902 5.81159 10.955 4.25151 12.7623 4.25151H14.9436V7.15561H13.8529C13.2509 7.15561 12.7623 7.0952 12.7623 7.73643V10.0597H15.489L14.3983 12.9638H12.7623V19.3528H16.0343C17.2373 19.3528 18.2157 18.3108 18.2157 17.0295V3.08988C18.2157 1.80859 17.2373 0.766602 16.0343 0.766602Z" fill="white"/>
</g>
<defs>
<clipPath id="clip0">
<rect width="17.451" height="18.5862" fill="white" transform="translate(0.764709 0.766602)"/>
</clipPath>
</defs>
</svg>
