<svg width="20" height="21" viewBox="0 0 20 21" fill="none" xmlns="http://www.w3.org/2000/svg">
<g clip-path="url(#clip0)">
<path d="M4.4725 6.50452H0V20.8146H4.4725V6.50452Z" fill="#1D3750" fill-opacity="0.6"/>
<path d="M16.655 6.67234C16.6075 6.65672 16.5625 6.63981 16.5125 6.6255C16.4525 6.61119 16.3925 6.59948 16.3312 6.58908C16.0937 6.53964 15.8338 6.50452 15.5288 6.50452C12.9213 6.50452 11.2675 8.47801 10.7225 9.24035V6.50452H6.25V20.8146H10.7225V13.0091C10.7225 13.0091 14.1025 8.10985 15.5288 11.7082C15.5288 14.9202 15.5288 20.8146 15.5288 20.8146H20V11.1579C20 8.99578 18.5763 7.194 16.655 6.67234Z" fill="#1D3750" fill-opacity="0.6"/>
<path d="M2.1875 4.55322C3.39562 4.55322 4.375 3.53395 4.375 2.27661C4.375 1.01927 3.39562 0 2.1875 0C0.979377 0 0 1.01927 0 2.27661C0 3.53395 0.979377 4.55322 2.1875 4.55322Z" fill="#1D3750" fill-opacity="0.6"/>
</g>
<defs>
<clipPath id="clip0">
<rect width="20" height="20.8147" fill="white"/>
</clipPath>
</defs>
</svg>
