<svg width="20" height="21" viewBox="0 0 20 21" fill="none" xmlns="http://www.w3.org/2000/svg">
<g clip-path="url(#clip0)">
<path d="M13.75 0H6.25C2.79875 0 0 2.91276 0 6.5046V14.3101C0 17.902 2.79875 20.8147 6.25 20.8147H13.75C17.2013 20.8147 20 17.902 20 14.3101V6.5046C20 2.91276 17.2013 0 13.75 0ZM18.125 14.3101C18.125 16.8209 16.1625 18.8633 13.75 18.8633H6.25C3.8375 18.8633 1.875 16.8209 1.875 14.3101V6.5046C1.875 3.99382 3.8375 1.95138 6.25 1.95138H13.75C16.1625 1.95138 18.125 3.99382 18.125 6.5046V14.3101Z" fill="#1D3750" fill-opacity="0.6"/>
<path d="M10 5.20361C7.23875 5.20361 5 7.53356 5 10.4073C5 13.281 7.23875 15.611 10 15.611C12.7613 15.611 15 13.281 15 10.4073C15 7.53356 12.7613 5.20361 10 5.20361ZM10 13.6596C8.2775 13.6596 6.875 12.2 6.875 10.4073C6.875 8.61332 8.2775 7.15499 10 7.15499C11.7225 7.15499 13.125 8.61332 13.125 10.4073C13.125 12.2 11.7225 13.6596 10 13.6596Z" fill="#1D3750" fill-opacity="0.6"/>
<path d="M15.375 5.5069C15.7429 5.5069 16.0412 5.19646 16.0412 4.81351C16.0412 4.43056 15.7429 4.12012 15.375 4.12012C15.007 4.12012 14.7087 4.43056 14.7087 4.81351C14.7087 5.19646 15.007 5.5069 15.375 5.5069Z" fill="#1D3750" fill-opacity="0.6"/>
</g>
<defs>
<clipPath id="clip0">
<rect width="20" height="20.8147" fill="white"/>
</clipPath>
</defs>
</svg>
