<svg width="20" height="21" viewBox="0 0 20 21" fill="none" xmlns="http://www.w3.org/2000/svg">
<g clip-path="url(#clip0)">
<path d="M20 3.95341C19.2563 4.29295 18.4637 4.51801 17.6375 4.62729C18.4875 4.09911 19.1363 3.26913 19.4412 2.26872C18.6488 2.76047 17.7738 3.10781 16.8412 3.30165C16.0887 2.46776 15.0162 1.95129 13.8462 1.95129C11.5763 1.95129 9.74875 3.86885 9.74875 6.21961C9.74875 6.55785 9.77625 6.88308 9.84375 7.1927C6.435 7.01968 3.41875 5.31938 1.3925 2.72924C1.03875 3.368 0.83125 4.09911 0.83125 4.88617C0.83125 6.36401 1.5625 7.67404 2.6525 8.43248C1.99375 8.41947 1.3475 8.22043 0.8 7.90691C0.8 7.91992 0.8 7.93683 0.8 7.95374C0.8 10.0274 2.22125 11.7498 4.085 12.1466C3.75125 12.2416 3.3875 12.2871 3.01 12.2871C2.7475 12.2871 2.4825 12.2715 2.23375 12.2143C2.765 13.9041 4.2725 15.1465 6.065 15.1869C4.67 16.3226 2.89875 17.0068 0.98125 17.0068C0.645 17.0068 0.3225 16.9912 0 16.9483C1.81625 18.1673 3.96875 18.8633 6.29 18.8633C13.835 18.8633 17.96 12.3587 17.96 6.72047C17.96 6.53183 17.9538 6.3497 17.945 6.16888C18.7588 5.56785 19.4425 4.81722 20 3.95341Z" fill="#1D3750" fill-opacity="0.6"/>
</g>
<defs>
<clipPath id="clip0">
<rect width="20" height="20.8147" fill="white"/>
</clipPath>
</defs>
</svg>
