<svg width="18" height="20" viewBox="0 0 18 20" fill="none" xmlns="http://www.w3.org/2000/svg">
<g clip-path="url(#clip0)">
<path d="M12.174 0.766602H5.62988C2.6185 0.766602 0.176453 3.36751 0.176453 6.57479V13.5446C0.176453 16.7519 2.6185 19.3528 5.62988 19.3528H12.174C15.1854 19.3528 17.6274 16.7519 17.6274 13.5446V6.57479C17.6274 3.36751 15.1854 0.766602 12.174 0.766602ZM15.9914 13.5446C15.9914 15.7866 14.279 17.6103 12.174 17.6103H5.62988C3.52486 17.6103 1.81248 15.7866 1.81248 13.5446V6.57479C1.81248 4.33283 3.52486 2.50906 5.62988 2.50906H12.174C14.279 2.50906 15.9914 4.33283 15.9914 6.57479V13.5446Z" fill="white"/>
<path d="M8.90193 5.41309C6.4926 5.41309 4.53918 7.49358 4.53918 10.0596C4.53918 12.6257 6.4926 14.7062 8.90193 14.7062C11.3113 14.7062 13.2647 12.6257 13.2647 10.0596C13.2647 7.49358 11.3113 5.41309 8.90193 5.41309ZM8.90193 12.9637C7.39896 12.9637 6.17521 11.6604 6.17521 10.0596C6.17521 8.45774 7.39896 7.15554 8.90193 7.15554C10.4049 7.15554 11.6286 8.45774 11.6286 10.0596C11.6286 11.6604 10.4049 12.9637 8.90193 12.9637Z" fill="white"/>
<path d="M13.5919 5.68411C13.913 5.68411 14.1732 5.4069 14.1732 5.06495C14.1732 4.723 13.913 4.4458 13.5919 4.4458C13.2708 4.4458 13.0106 4.723 13.0106 5.06495C13.0106 5.4069 13.2708 5.68411 13.5919 5.68411Z" fill="white"/>
</g>
<defs>
<clipPath id="clip0">
<rect width="17.451" height="18.5862" fill="white" transform="translate(0.176453 0.766602)"/>
</clipPath>
</defs>
</svg>
