<svg width="19" height="20" viewBox="0 0 19 20" fill="none" xmlns="http://www.w3.org/2000/svg">
<g clip-path="url(#clip0)">
<path d="M4.49073 6.57471H0.588257V19.3527H4.49073V6.57471Z" fill="white"/>
<path d="M15.1206 6.72456C15.0791 6.71062 15.0398 6.69552 14.9962 6.68274C14.9439 6.66996 14.8915 6.65951 14.8381 6.65021C14.6308 6.60607 14.404 6.57471 14.1379 6.57471C11.8627 6.57471 10.4197 8.33691 9.94416 9.01763V6.57471H6.04169V19.3527H9.94416V12.3829C9.94416 12.3829 12.8934 8.00817 14.1379 11.2213C14.1379 14.0893 14.1379 19.3527 14.1379 19.3527H18.0392V10.7299C18.0392 8.79924 16.7969 7.19038 15.1206 6.72456Z" fill="white"/>
<path d="M2.49696 4.83233C3.5511 4.83233 4.40566 3.92219 4.40566 2.79947C4.40566 1.67675 3.5511 0.766602 2.49696 0.766602C1.44281 0.766602 0.588257 1.67675 0.588257 2.79947C0.588257 3.92219 1.44281 4.83233 2.49696 4.83233Z" fill="white"/>
</g>
<defs>
<clipPath id="clip0">
<rect width="17.451" height="18.5862" fill="white" transform="translate(0.588257 0.766602)"/>
</clipPath>
</defs>
</svg>
