<svg width="18" height="20" viewBox="0 0 18 20" fill="none" xmlns="http://www.w3.org/2000/svg">
<g clip-path="url(#clip0)">
<path d="M17.451 4.29655C16.802 4.59974 16.1105 4.8007 15.3896 4.89828C16.1313 4.42665 16.6973 3.68553 16.9634 2.79223C16.2719 3.23133 15.5085 3.54149 14.6948 3.71457C14.0382 2.96996 13.1024 2.50879 12.0815 2.50879C10.1008 2.50879 8.50626 4.22104 8.50626 6.32012C8.50626 6.62215 8.53026 6.91256 8.58916 7.18903C5.61485 7.03453 2.98303 5.51627 1.21502 3.20345C0.90636 3.77381 0.725306 4.42665 0.725306 5.12944C0.725306 6.44907 1.36336 7.61883 2.31444 8.29607C1.73964 8.28445 1.17576 8.10672 0.698039 7.82677C0.698039 7.83838 0.698039 7.85349 0.698039 7.86859C0.698039 9.72024 1.93815 11.2582 3.56436 11.6125C3.27315 11.6973 2.95576 11.738 2.62637 11.738C2.39733 11.738 2.1661 11.7241 1.94906 11.673C2.4126 13.1819 3.72797 14.2913 5.29201 14.3273C4.0748 15.3414 2.5293 15.9524 0.856189 15.9524C0.562794 15.9524 0.281397 15.9385 0 15.9002C1.58477 16.9886 3.46293 17.6101 5.48833 17.6101C12.0717 17.6101 15.671 11.8019 15.671 6.76735C15.671 6.59892 15.6655 6.43629 15.6579 6.27482C16.3679 5.73814 16.9645 5.06788 17.451 4.29655Z" fill="white"/>
</g>
<defs>
<clipPath id="clip0">
<rect width="17.451" height="18.5862" fill="white" transform="translate(0 0.766602)"/>
</clipPath>
</defs>
</svg>
