<svg width="236" height="236" viewBox="0 0 236 236" fill="none" xmlns="http://www.w3.org/2000/svg">
<rect x="0.5" y="0.5" width="235" height="235" fill="#A537FD" stroke="#A537FD"/>
<path d="M20.9656 92.4948H36.5516L48.0359 128.315H48.2313L59.8328 92.4948H75.4969V143.667H63.5828V130.971L64.7156 107.612L64.5203 107.573L52.1766 143.667H44.1688L31.9422 107.885L31.7469 107.924L32.8797 130.971V143.667H20.9656V92.4948ZM121.827 126.01C121.592 132.052 119.808 136.648 116.475 139.799C113.168 142.924 108.35 144.487 102.022 144.487C95.6938 144.487 90.5505 142.547 86.5922 138.667C82.6599 134.786 80.6938 129.734 80.6938 123.51V112.807C80.6938 106.583 82.5948 101.531 86.3969 97.651C90.199 93.7708 95.225 91.8307 101.475 91.8307C107.751 91.8307 112.608 93.4323 116.045 96.6354C119.509 99.8385 121.462 104.487 121.905 110.581L121.827 110.815H110.264C110.108 107.378 109.353 104.878 107.998 103.315C106.644 101.753 104.418 100.971 101.319 100.971C98.6365 100.971 96.5141 102.039 94.9516 104.174C93.3891 106.31 92.6078 109.161 92.6078 112.729V123.51C92.6078 127.104 93.4542 129.982 95.1469 132.143C96.8656 134.279 99.1573 135.346 102.022 135.346C104.913 135.346 106.957 134.604 108.155 133.12C109.379 131.635 110.069 129.187 110.225 125.776H121.748L121.827 126.01ZM144.25 101.635H138.508V134.526H144.25C147.401 134.526 149.875 133.458 151.672 131.323C153.469 129.161 154.367 126.284 154.367 122.69V113.393C154.367 109.799 153.469 106.948 151.672 104.839C149.875 102.703 147.401 101.635 144.25 101.635ZM145.07 143.667H126.594V92.4948H145.07C151.164 92.4948 156.216 94.4609 160.227 98.3932C164.263 102.326 166.281 107.352 166.281 113.471V122.69C166.281 128.81 164.263 133.836 160.227 137.768C156.216 141.701 151.164 143.667 145.07 143.667ZM212.455 117.456V136.674C210.502 138.966 207.845 140.841 204.486 142.299C201.127 143.758 197.116 144.487 192.455 144.487C186.101 144.487 180.944 142.547 176.986 138.667C173.054 134.786 171.088 129.734 171.088 123.51V112.807C171.088 106.609 173.002 101.57 176.83 97.6901C180.684 93.7839 185.736 91.8307 191.986 91.8307C198.262 91.8307 203.067 93.3021 206.4 96.2448C209.759 99.1875 211.673 103.393 212.142 108.862L212.103 109.096H200.931C200.541 106.31 199.655 104.266 198.275 102.964C196.921 101.635 194.864 100.971 192.103 100.971C189.369 100.971 187.155 102.065 185.463 104.253C183.796 106.414 182.963 109.24 182.963 112.729V123.51C182.963 127.13 183.796 130.008 185.463 132.143C187.129 134.279 189.46 135.346 192.455 135.346C196.257 135.346 198.952 134.695 200.541 133.393V125.307H192.455V117.456H212.455Z" fill="white"/>
<path d="M13 169H222V157H13V169Z" fill="white"/>
<path d="M13 80H222V68H117.5H13V80Z" fill="white"/>
</svg>
